<svg width="60" height="60" viewBox="0 0 60 60" fill="none" xmlns="http://www.w3.org/2000/svg">
<g clip-path="url(#clip0_64_540)">
<path d="M52.4001 0H7.60001C6.49552 0 5.59998 0.89543 5.59998 2.00004V58.0001C5.59998 59.1046 6.4954 60.0001 7.60001 60.0001H52.4C53.5045 60.0001 54.4 59.1047 54.4 58.0001V2.00004C54.4 0.89543 53.5046 0 52.4001 0ZM50.4 56H9.60005V3.99996H50.4V56Z" fill="#333F48"/>
<path d="M44.6667 26.5334H15.3333C14.2288 26.5334 13.3333 27.4288 13.3333 28.5334C13.3333 29.638 14.2287 30.5335 15.3333 30.5335H44.6666C45.7711 30.5335 46.6666 29.638 46.6666 28.5334C46.6666 27.4288 45.7712 26.5334 44.6667 26.5334Z" fill="#333F48"/>
<path d="M44.6667 34.4H15.3333C14.2288 34.4 13.3333 35.2955 13.3333 36.4001C13.3333 37.5047 14.2287 38.4001 15.3333 38.4001H44.6666C45.7711 38.4001 46.6666 37.5047 46.6666 36.4001C46.6666 35.2955 45.7712 34.4 44.6667 34.4Z" fill="#333F48"/>
<path d="M40.4001 10.6666H19.6C18.4955 10.6666 17.6 11.5621 17.6 12.6667C17.6 13.7712 18.4954 14.6667 19.6 14.6667H40.4C41.5045 14.6667 42.4 13.7713 42.4 12.6667C42.4 11.5622 41.5046 10.6666 40.4001 10.6666Z" fill="#333F48"/>
<path d="M44.6667 18.6667H15.3333C14.2288 18.6667 13.3333 19.5621 13.3333 20.6667C13.3333 21.7712 14.2287 22.6668 15.3333 22.6668H44.6666C45.7711 22.6668 46.6666 21.7713 46.6666 20.6667C46.6666 19.5621 45.7712 18.6667 44.6667 18.6667Z" fill="#333F48"/>
<path d="M29.9999 43.2C27.0591 43.2 24.6666 45.5925 24.6666 48.5333C24.6666 51.4742 27.0591 53.8666 29.9999 53.8666C32.9408 53.8666 35.3333 51.4742 35.3333 48.5333C35.3333 45.5925 32.9408 43.2 29.9999 43.2ZM29.9999 49.8667C29.2647 49.8667 28.6666 49.2686 28.6666 48.5333C28.6666 47.7981 29.2647 47.2 29.9999 47.2C30.7352 47.2 31.3333 47.7981 31.3333 48.5333C31.3333 49.2686 30.7352 49.8667 29.9999 49.8667Z" fill="#333F48"/>
<path d="M44.6667 46.5333H40.4001C39.2956 46.5333 38.4 47.4287 38.4 48.5333C38.4 49.6379 39.2955 50.5333 40.4001 50.5333H44.6667C45.7712 50.5333 46.6668 49.6379 46.6668 48.5333C46.6668 47.4287 45.7712 46.5333 44.6667 46.5333Z" fill="#333F48"/>
</g>
<defs>
<clipPath id="clip0_64_540">
<rect width="60" height="60" fill="white"/>
</clipPath>
</defs>
</svg>
