<svg width="64" height="64" viewBox="0 0 64 64" fill="none" xmlns="http://www.w3.org/2000/svg">
<g clip-path="url(#clip0_64_524)">
<path d="M55.6338 24.852L52.7941 9.32782C52.6405 8.48771 51.9085 7.8775 51.0545 7.8775H29.2664C28.4549 7.8775 27.7475 8.42984 27.5507 9.21704L24.2071 22.5915H16.8869V9.64601C16.8869 8.66923 16.095 7.8775 15.1184 7.8775C14.1417 7.8775 13.3498 8.66923 13.3498 9.64601V22.5915H3.60748C3.07452 22.5915 2.57 22.8319 2.23412 23.2457C1.89825 23.6596 1.7671 24.2028 1.87688 24.7243L4.18896 35.7072C1.63198 37.8239 0 41.0208 0 44.5918C0 50.9498 5.17268 56.1225 11.5307 56.1225C17.8887 56.1225 23.0614 50.9498 23.0614 44.5918C23.0614 44.378 23.0544 44.1659 23.043 43.955H31.1102C33.1139 50.9712 39.5839 56.1225 47.2346 56.1225C56.4791 56.1225 64.0001 48.6015 64.0001 39.357C64 33.171 60.6319 27.7574 55.6338 24.852ZM51.6247 22.5915H44.0512V11.4145H49.5801L51.6247 22.5915ZM30.6473 11.4145H40.5142V22.5915H27.853L30.6473 11.4145ZM11.5307 52.5855C7.12299 52.5855 3.53702 48.9995 3.53702 44.5918C3.53702 40.1841 7.12299 36.5981 11.5307 36.5981C15.9384 36.5981 19.5244 40.1841 19.5244 44.5918C19.5244 48.9995 15.9384 52.5855 11.5307 52.5855ZM22.2763 40.418C20.6 36.1177 16.417 33.0611 11.5307 33.0611C10.0781 33.0611 8.68876 33.3337 7.40751 33.8261L5.78699 26.1285H36.9464C33.0072 29.1991 30.4689 33.987 30.4689 39.357C30.4689 39.7134 30.4813 40.067 30.5034 40.418H22.2763ZM47.2345 52.5855C39.9403 52.5855 34.006 46.6512 34.006 39.357C34.006 32.0628 39.9403 26.1285 47.2345 26.1285C54.5287 26.1285 60.463 32.0628 60.463 39.357C60.463 46.6512 54.5287 52.5855 47.2345 52.5855Z" fill="#115740"/>
<path d="M47.2345 30.3885C42.2893 30.3885 38.2661 34.4118 38.2661 39.357C38.2661 44.3022 42.2893 48.3255 47.2345 48.3255C52.1797 48.3255 56.203 44.3022 56.203 39.357C56.203 34.4118 52.1797 30.3885 47.2345 30.3885ZM47.2345 44.7885C44.2397 44.7885 41.8031 42.352 41.8031 39.357C41.8031 36.362 44.2397 33.9256 47.2345 33.9256C50.2294 33.9256 52.666 36.362 52.666 39.357C52.666 42.352 50.2294 44.7885 47.2345 44.7885Z" fill="#115740"/>
<path d="M11.5307 39.7156C8.84198 39.7156 6.65454 41.9031 6.65454 44.5918C6.65454 47.2805 8.84198 49.4679 11.5307 49.4679C14.2194 49.4679 16.4068 47.2805 16.4068 44.5918C16.4068 41.9031 14.2194 39.7156 11.5307 39.7156ZM11.5307 45.9309C10.7923 45.9309 10.1916 45.3302 10.1916 44.5918C10.1916 43.8534 10.7923 43.2527 11.5307 43.2527C12.2691 43.2527 12.8698 43.8534 12.8698 44.5918C12.8698 45.3302 12.2691 45.9309 11.5307 45.9309Z" fill="#115740"/>
</g>
<defs>
<clipPath id="clip0_64_524">
<rect width="64" height="64" fill="white"/>
</clipPath>
</defs>
</svg>
