<svg width="40" height="40" viewBox="0 0 40 40" fill="none" xmlns="http://www.w3.org/2000/svg">
<path d="M7.625 0.148438C7.50781 0.226562 7.33594 0.398438 7.25781 0.515625C7.11719 0.734375 7.10938 1.26562 7.10938 20C7.10938 38.7344 7.11719 39.2656 7.25781 39.4844C7.33594 39.6016 7.50781 39.7734 7.625 39.8516C7.84375 39.9922 8.22656 40 20 40C31.7734 40 32.1562 39.9922 32.375 39.8516C32.4922 39.7734 32.6641 39.6016 32.7422 39.4844C32.8828 39.2656 32.8906 38.7344 32.8906 20C32.8906 1.26562 32.8828 0.734375 32.7422 0.515625C32.6641 0.398438 32.4922 0.226562 32.375 0.148438C32.1562 0.0078125 31.7734 0 20 0C8.22656 0 7.84375 0.0078125 7.625 0.148438ZM30.5469 20V37.6562H20H9.45312V20V2.34375H20H30.5469V20Z" fill="#115740"/>
<path d="M19.3438 4.99219C18.9844 5.23438 18.8281 5.53125 18.8281 6.01562C18.8281 6.5 18.9844 6.79688 19.3438 7.03906C19.6484 7.24219 20.3516 7.24219 20.6562 7.03906C21.0156 6.79688 21.1719 6.5 21.1719 6.01562C21.1719 5.72656 21.125 5.51562 21.0234 5.35938C20.7812 5 20.4844 4.84375 20 4.84375C19.7109 4.84375 19.5 4.89062 19.3438 4.99219Z" fill="#115740"/>
<path d="M16 13.0859C14.0391 13.7422 12.3516 14.3359 12.2578 14.3984C11.8281 14.7031 11.7969 14.8359 11.7969 16.5625C11.7969 18 11.8125 18.1875 11.9453 18.3906C12.2344 18.8203 12.4609 18.9062 13.3438 18.9062H14.1406V21.25V23.5938H13.3438C12.6875 23.5938 12.5 23.625 12.3125 23.7422C11.9531 23.9844 11.7969 24.2812 11.7969 24.7656C11.7969 25.25 11.9531 25.5469 12.3125 25.7891C12.5312 25.9297 12.8203 25.9375 20 25.9375C27.1797 25.9375 27.4688 25.9297 27.6875 25.7891C28.0469 25.5469 28.2031 25.25 28.2031 24.7656C28.2031 24.2812 28.0469 23.9844 27.6875 23.7422C27.5 23.625 27.3125 23.5938 26.6641 23.5938H25.8594V21.25V18.9062H26.6641C27.5391 18.9062 27.7656 18.8203 28.0547 18.3906C28.1875 18.1875 28.2031 18 28.2031 16.5625C28.2031 14.8359 28.1719 14.7031 27.7422 14.3984C27.6484 14.3359 25.9453 13.7422 23.9609 13.0781C21.1328 12.1328 20.2656 11.875 19.9609 11.8828C19.6719 11.8828 18.6094 12.2109 16 13.0859ZM22.9844 15.3281C25.3125 16.1094 25.8594 16.3125 25.8594 16.4219C25.8594 16.5547 25.5391 16.5625 20 16.5625C14.4609 16.5625 14.1406 16.5547 14.1406 16.4219C14.1406 16.3125 14.6797 16.1094 16.9766 15.3359C18.5312 14.8125 19.875 14.3828 19.9609 14.3828C20.0469 14.375 21.4062 14.8047 22.9844 15.3281ZM18.8281 21.25V23.5938H17.6562H16.4844V21.25V18.9062H17.6562H18.8281V21.25ZM23.5156 21.25V23.5938H22.3438H21.1719V21.25V18.9062H22.3438H23.5156V21.25Z" fill="#115740"/>
<path d="M17 33.1172C16.6406 33.3594 16.4844 33.6562 16.4844 34.1406C16.4844 34.625 16.6406 34.9219 17 35.1641C17.2109 35.3047 17.4141 35.3125 20 35.3125C22.5859 35.3125 22.7891 35.3047 23 35.1641C23.3594 34.9219 23.5156 34.625 23.5156 34.1406C23.5156 33.6562 23.3594 33.3594 23 33.1172C22.7891 32.9766 22.5859 32.9688 20 32.9688C17.4141 32.9688 17.2109 32.9766 17 33.1172Z" fill="#115740"/>
</svg>
