<svg width="40" height="40" viewBox="0 0 40 40" fill="none" xmlns="http://www.w3.org/2000/svg">
<g clip-path="url(#clip0_311_55)">
<path d="M2.9375 0.148438C2.82031 0.226562 2.64844 0.398438 2.57031 0.515625C2.42969 0.734375 2.42188 1.07812 2.42188 10.625C2.42188 20.1719 2.42969 20.5156 2.57031 20.7344C2.64844 20.8516 2.82031 21.0234 2.9375 21.1016C3.15625 21.2422 3.64062 21.25 20 21.25C36.3594 21.25 36.8438 21.2422 37.0625 21.1016C37.1797 21.0234 37.3516 20.8516 37.4297 20.7344C37.5703 20.5156 37.5781 20.1719 37.5781 10.625C37.5781 1.07812 37.5703 0.734375 37.4297 0.515625C37.3516 0.398438 37.1797 0.226562 37.0625 0.148438C36.8438 0.0078125 36.3594 0 20 0C3.64062 0 3.15625 0.0078125 2.9375 0.148438ZM35.2344 10.625V18.9062H20H4.76562V10.625V2.34375H20H35.2344V10.625Z" fill="#115740"/>
<path d="M7.625 4.83594C7.50781 4.91406 7.33594 5.08594 7.25781 5.20312C7.11719 5.42188 7.10938 5.66406 7.10938 10.625C7.10938 15.5859 7.11719 15.8281 7.25781 16.0469C7.58594 16.5391 7.6875 16.5625 9.45312 16.5625C10.8906 16.5625 11.0781 16.5469 11.2812 16.4141C11.6406 16.1719 11.7969 15.875 11.7969 15.3906C11.7969 14.9062 11.6406 14.6094 11.2812 14.3672C11.0938 14.25 10.9062 14.2188 10.2578 14.2188H9.45312V10.625V7.03125H10.2578C10.9062 7.03125 11.0938 7 11.2812 6.88281C11.6406 6.64062 11.7969 6.34375 11.7969 5.85938C11.7969 5.375 11.6406 5.07812 11.2812 4.83594C11.0781 4.70312 10.8906 4.6875 9.45312 4.6875C8.01562 4.6875 7.82812 4.70312 7.625 4.83594Z" fill="#115740"/>
<path d="M18.5547 4.83594C16.75 5.32813 15.4375 6.4375 14.6484 8.14844C14.2656 8.97656 14.1406 9.57813 14.1406 10.6172C14.1406 11.7109 14.2734 12.2969 14.7266 13.2422C15.75 15.3516 17.6719 16.5625 20 16.5625C21.8359 16.5625 23.4688 15.7891 24.5781 14.3906C25.0156 13.8359 25.5703 12.7031 25.7344 12.0234C25.8984 11.3438 25.8984 9.89844 25.7344 9.22656C25.2422 7.21875 23.7344 5.57031 21.8203 4.9375C20.9766 4.66406 19.375 4.61719 18.5547 4.83594ZM21.0313 7.25781C21.9375 7.57031 22.6563 8.21875 23.1094 9.13281C23.3906 9.70313 23.3984 9.73438 23.3984 10.625C23.3984 11.5156 23.3906 11.5469 23.1094 12.1172C22.4766 13.4063 21.3438 14.1406 20 14.1406C18.6563 14.1406 17.5234 13.4063 16.8906 12.1172C16.6094 11.5469 16.6016 11.5156 16.6016 10.625C16.6016 9.73438 16.6094 9.70313 16.8906 9.13281C17.3359 8.23438 18.0547 7.57813 18.9375 7.26563C19.4922 7.0625 20.4688 7.0625 21.0313 7.25781Z" fill="#115740"/>
<path d="M28.7188 4.83594C28.3594 5.07812 28.2031 5.375 28.2031 5.85938C28.2031 6.34375 28.3594 6.64062 28.7188 6.88281C28.9062 7 29.0938 7.03125 29.75 7.03125H30.5469V10.625V14.2188H29.75C28.8672 14.2188 28.6406 14.3047 28.3516 14.7344C28.1484 15.0391 28.1484 15.7422 28.3516 16.0469C28.6797 16.5391 28.7812 16.5625 30.5469 16.5625C32.3125 16.5625 32.4141 16.5391 32.7422 16.0469C32.8828 15.8281 32.8906 15.5859 32.8906 10.625C32.8906 5.66406 32.8828 5.42188 32.7422 5.20312C32.4141 4.71094 32.3125 4.6875 30.5469 4.6875C29.1094 4.6875 28.9219 4.70312 28.7188 4.83594Z" fill="#115740"/>
<path d="M11.625 24.7656C10.8438 24.8594 9.91406 25.125 8.83594 25.5547L7.86719 25.9375H4.30469C0.945312 25.9375 0.726562 25.9453 0.515625 26.0859C0.398438 26.1641 0.226562 26.3359 0.148438 26.4531C0.0078125 26.6719 0 26.9375 0 32.9688C0 39 0.0078125 39.2656 0.148438 39.4844C0.226562 39.6016 0.398438 39.7734 0.515625 39.8516C0.726562 39.9922 0.953125 40 4.72656 40C8.5 40 8.72656 39.9922 8.9375 39.8516C9.35938 39.5703 9.45312 39.3359 9.45312 38.5V37.7422L9.75 37.6562C10.4766 37.4531 11.5078 37.3203 12.3828 37.3203C13.375 37.3203 13.5312 37.3438 15.5469 37.7578C19.9922 38.6875 23.8828 38.6797 27.5781 37.7344C31.0703 36.8516 34.4531 35.0547 37.3984 32.5312C38.2734 31.7812 39.7578 30.3125 39.8906 30.0625C40.0859 29.6875 40.0312 29.1406 39.75 28.7109C39.2031 27.8906 37.7344 26.9688 36.5078 26.6719C36.0625 26.5703 35.7188 26.5469 34.9062 26.5859C33.25 26.6484 32.5859 26.9375 30.6719 28.4297C30.0234 28.9375 29.3906 29.4219 29.2578 29.5078L29.0234 29.6719L28.7656 29.1406C28.1016 27.7812 26.7578 26.6641 25.1953 26.1719C24.7344 26.0234 24.3672 25.9922 22.8516 25.9375C19.8984 25.8281 18.5703 25.6797 16.1328 25.1953C13.6719 24.6953 12.875 24.625 11.625 24.7656ZM14.7266 27.3906C17.6797 28.0234 19.4219 28.2344 22.3047 28.3203C23.1641 28.3516 24.0391 28.4062 24.25 28.4453C24.7188 28.5391 25.3281 28.8359 25.7578 29.1875C26.0469 29.4297 26.7188 30.3203 26.7188 30.4688C26.7188 30.5 24.5781 30.5547 21.9609 30.5859C16.7109 30.6484 16.9766 30.625 16.6328 31.1406C16.4297 31.4531 16.4297 32.125 16.6406 32.4609C16.9766 33 16.7109 32.9844 22.6172 32.9531L27.9297 32.9297L28.6172 32.6719C29.4219 32.3594 30.6328 31.5781 32.2734 30.2891C32.9062 29.8047 33.5938 29.3281 33.8125 29.2344C34.3516 29 35.0859 28.9062 35.6641 29C36.125 29.0703 37.0312 29.4219 37.0312 29.5312C37.0312 29.6172 35.4609 30.9844 34.6875 31.5781C30.4375 34.8281 25.7812 36.2891 20.5703 36.0078C18.8359 35.9141 17.5938 35.7344 15.1562 35.2031C13.3906 34.8203 12 34.7734 10.375 35.0469C9.99219 35.1094 9.63281 35.1797 9.57031 35.2031C9.46875 35.2422 9.45312 34.8125 9.45312 31.5781V27.9062L9.67188 27.8281C11.375 27.1953 11.8516 27.1016 12.9688 27.1484C13.4219 27.1719 14.2109 27.2812 14.7266 27.3906ZM7.10938 32.9688V37.6562H4.72656H2.34375V32.9688V28.2812H4.72656H7.10938V32.9688Z" fill="#115740"/>
</g>
<defs>
<clipPath id="clip0_311_55">
<rect width="40" height="40" fill="white"/>
</clipPath>
</defs>
</svg>
