<svg width="40" height="40" viewBox="0 0 40 40" fill="none" xmlns="http://www.w3.org/2000/svg">
<g clip-path="url(#clip0_311_62)">
<path d="M10.4063 0.15625C10.2579 0.25 10.086 0.453125 10.0001 0.648438C9.85161 0.960938 9.8438 1.20312 9.8438 5.38281V9.78906L9.51568 9.48438C8.75786 8.78906 7.91411 8.3125 7.03911 8.08594C4.02349 7.30469 0.984427 9.04688 0.164115 12.0312C-0.0546352 12.8203 -0.0624477 14.1094 0.156302 14.9531C0.539115 16.4609 1.57818 17.7656 2.9688 18.4766C6.1563 20.1094 9.07036 21.8516 10.8204 23.1641L11.4141 23.6172L9.78911 25.2656C8.72661 26.3359 8.08599 27.0547 7.95318 27.3125C7.51568 28.125 7.39849 29.0312 7.61724 29.8672C7.82036 30.6484 8.10161 31.0781 8.99224 31.9922L9.8438 32.8672V35.9453C9.8438 38.8125 9.85943 39.0469 10.0001 39.3516C10.086 39.5469 10.2579 39.75 10.4063 39.8438C10.6641 40 10.7579 40 24.961 40C38.836 40 39.2657 39.9922 39.4844 39.8516C39.6016 39.7734 39.7735 39.6016 39.8516 39.4844C39.9922 39.2656 40.0001 38.8047 40.0001 23.6484C40.0001 10.2344 39.9844 8.00781 39.8907 7.82812C39.711 7.5 32.336 0.171875 32.086 0.078125C31.9376 0.0234375 28.4532 0 21.2657 0C10.7735 0 10.6641 0 10.4063 0.15625ZM22.2032 2.42188H30.3829L30.4063 5.61719C30.4297 8.71094 30.4376 8.82031 30.5938 9.03125C30.6797 9.14844 30.8516 9.32031 30.9688 9.40625C31.1797 9.5625 31.2891 9.57031 34.4219 9.59375L37.6563 9.61719V23.6328V37.6562H24.961H12.2657V35.25C12.2657 32.1172 12.1876 32.2188 13.5157 33.5625C14.6251 34.6875 14.961 34.8906 15.5391 34.8047C15.8907 34.7578 15.9844 34.6641 21.2735 29.3906C24.2344 26.4375 26.7032 23.9297 26.7657 23.8125C26.9063 23.5391 26.9063 22.9453 26.7657 22.6719C26.7032 22.5547 26.211 22.0234 25.6719 21.4922L24.6954 20.5156L25.0313 20.1562C25.6172 19.5234 25.7579 19.0547 25.5157 18.4922C25.3751 18.1641 23.3516 16.1797 22.8907 15.9141C22.2969 15.5781 21.7032 15.4453 20.9063 15.4844C20.2813 15.5078 20.1172 15.5469 19.586 15.8047C19.0313 16.0625 18.8282 16.2344 17.336 17.7109L15.6954 19.3359L15.5391 19.1406C14.7969 18.2031 13.5001 16.2422 12.6719 14.8047L12.2657 14.0938V8.21094V2.32031L13.1485 2.36719C13.6251 2.39844 17.7032 2.42188 22.2032 2.42188ZM34.3751 5.66406L35.8985 7.1875H34.3516H32.8126V5.66406C32.8126 4.82812 32.8204 4.14062 32.836 4.14062C32.8438 4.14062 33.5391 4.82812 34.3751 5.66406ZM6.35943 10.4297C7.44536 10.7109 7.96099 11.2266 8.82818 12.875C10.4297 15.9141 11.8829 18.3203 13.1407 20.0078C13.5626 20.5703 13.9063 21.0625 13.9063 21.0859C13.9063 21.1172 13.7344 21.3047 13.5313 21.5078L13.1563 21.875L12.461 21.3438C10.8282 20.0938 8.10943 18.4141 5.53911 17.0703C3.36724 15.9297 3.11724 15.7344 2.67193 14.7812C2.48443 14.3906 2.46099 14.2422 2.46099 13.5156C2.46099 12.7578 2.47661 12.6562 2.71099 12.1719C3.37505 10.7734 4.89068 10.0469 6.35943 10.4297ZM21.7657 18.1172C21.9297 18.2422 22.211 18.4844 22.3829 18.6641L22.6876 18.9844L16.8751 24.8047L11.0547 30.625L10.6407 30.2109C10.4141 29.9922 10.1563 29.6562 10.0704 29.4688C9.73443 28.7812 9.45318 29.1172 15.1797 23.3672C18.0235 20.5234 20.461 18.1172 20.586 18.0391C20.9376 17.8125 21.3985 17.8438 21.7657 18.1172ZM19.6719 27.5547L15.3516 31.875L14.8282 31.3516L14.2969 30.8203L18.6094 26.5078L22.9297 22.1875L23.4532 22.7109L23.9844 23.2422L19.6719 27.5547Z" fill="#115740"/>
<path d="M15.0391 4.83594C14.6094 5.10156 14.5 5.28125 14.4688 5.80469C14.4375 6.40625 14.6172 6.73438 15.1016 6.95312C15.4141 7.10156 15.6797 7.10938 21.2891 7.10938C26.836 7.10938 27.1641 7.10156 27.4688 6.96094C28.3125 6.57812 28.3594 5.33594 27.5625 4.84375C27.3125 4.69531 27.1563 4.6875 21.2891 4.6875C15.5703 4.6875 15.2656 4.69531 15.0391 4.83594Z" fill="#115740"/>
<path d="M15.0391 9.52343C14.6094 9.78905 14.5 9.96874 14.4688 10.4922C14.4375 11.1094 14.6172 11.4297 15.125 11.6484C15.4453 11.7969 15.6172 11.8047 17.4219 11.7812C19.5547 11.7578 19.5547 11.7578 19.9531 11.2187C20.1953 10.8984 20.1797 10.2031 19.9297 9.85155C19.6094 9.40624 19.4453 9.37499 17.25 9.37499C15.4609 9.37499 15.25 9.39061 15.0391 9.52343Z" fill="#115740"/>
<path d="M23.0547 9.51562C22.625 9.72656 22.4609 10.0156 22.4609 10.5469C22.4609 11.0391 22.5859 11.2891 23 11.5937C23.2031 11.75 23.3359 11.7578 25.1641 11.7812C27.0234 11.8047 27.1328 11.7969 27.4609 11.6406C27.9062 11.4219 28.125 11.0781 28.125 10.5781C28.125 10.125 27.9219 9.75781 27.5625 9.53125C27.3203 9.38281 27.1641 9.375 25.3125 9.375C23.5703 9.375 23.2891 9.39062 23.0547 9.51562Z" fill="#115740"/>
<path d="M29.3359 25.3906C28.1953 25.6875 27.4297 26.1484 26.625 27.0234C25.7031 28.0234 25.2344 29.25 25.2344 30.6719C25.2344 31.625 25.3828 32.2734 25.7812 33.0859C26.7109 34.9844 28.5078 36.0938 30.6641 36.0938C32.8047 36.0938 34.6016 35 35.5547 33.1094C36.3047 31.6172 36.2812 29.6328 35.4922 28.1016C35.0859 27.3047 34 26.2344 33.2031 25.8359C32.0078 25.2422 30.5312 25.0703 29.3359 25.3906ZM31.9687 27.9531C32.5859 28.25 33.1328 28.8125 33.4219 29.4375C33.6094 29.8359 33.6328 29.9766 33.6328 30.7031C33.6328 31.4688 33.6172 31.5547 33.3828 31.9922C32.1953 34.25 29.0703 34.2344 27.9453 31.9609C27.7109 31.4844 27.6953 31.3906 27.6953 30.6641C27.6953 29.9688 27.7187 29.8359 27.9062 29.4531C28.3047 28.6406 28.8906 28.1094 29.7109 27.8047C30.3516 27.5625 31.3125 27.625 31.9687 27.9531Z" fill="#115740"/>
</g>
<defs>
<clipPath id="clip0_311_62">
<rect width="40" height="40" fill="white"/>
</clipPath>
</defs>
</svg>
