<svg width="40" height="40" viewBox="0 0 40 40" fill="none" xmlns="http://www.w3.org/2000/svg">
<g clip-path="url(#clip0_311_80)">
<path d="M18.75 4.21876C11.5078 5.50001 5.39845 6.60939 5.1797 6.6797C4.60939 6.85157 3.66408 7.50782 3.28127 7.9922C2.64845 8.78126 2.26564 9.78907 2.26564 10.6875C2.26564 10.9141 2.32033 11.4766 2.39845 11.9375C2.48439 12.5156 2.50002 12.7734 2.43752 12.7969C2.39064 12.8125 2.10939 13 1.8047 13.2109C0.953141 13.8047 0.367204 14.6328 0.117204 15.6016C-0.0624837 16.2813 -0.0546712 34.2734 0.117204 34.9609C0.492204 36.3984 1.72658 37.6172 3.20314 38.0078C3.57033 38.1094 5.54689 38.125 17.2188 38.125C32.2188 38.125 31.2188 38.1563 32.2266 37.6328C32.8438 37.3047 33.6641 36.4922 33.9688 35.8984C34.4844 34.875 34.4844 34.8906 34.5156 31.3125L34.5391 28.0469L34.711 28.0078C34.8047 27.9922 35.3047 27.8984 35.8203 27.8047C37.3828 27.5313 38 27.25 38.7891 26.4531C39.3203 25.9141 39.7031 25.25 39.8828 24.5703C40.1328 23.6016 40.0938 23.3594 38.4375 13.9531C37.5391 8.82814 36.8125 4.92189 36.7188 4.67189C36.2266 3.35939 35.1172 2.35157 33.75 1.9922C32.7969 1.73439 32.7188 1.75001 18.75 4.21876ZM33.5 4.50001C33.9297 4.71095 34.2188 5.02345 34.4063 5.47657C34.5547 5.84376 37.5781 22.9844 37.5781 23.4766C37.5703 24.125 37.1406 24.8203 36.5469 25.125C36.3672 25.2188 34.8438 25.5469 34.6016 25.5469C34.5625 25.5469 34.5313 23.3906 34.5156 20.7578C34.4922 16.0781 34.4844 15.9688 34.3203 15.4688C33.8125 13.9688 32.5547 12.8047 31.1094 12.5078C30.8203 12.4453 26.8594 12.4219 17.8203 12.4219H4.94533L4.81252 11.5938C4.66408 10.7109 4.68752 10.3828 4.92189 9.92189C5.1172 9.53907 5.62502 9.09376 5.9922 8.98439C6.57033 8.81251 32.2344 4.31251 32.6641 4.3047C32.9844 4.29689 33.2031 4.35157 33.5 4.50001ZM30.7891 14.9531C31.2266 15.1094 31.5938 15.4297 31.836 15.875C32.0156 16.2109 32.0625 16.3984 32.0938 17.0078L32.1328 17.7344H17.2735H2.42189V17.0078C2.42189 16.4766 2.46095 16.2031 2.57033 15.9766C2.7422 15.6016 3.32814 15.0547 3.68752 14.9453C4.10158 14.8125 30.4219 14.8203 30.7891 14.9531ZM32.1094 21.6016V23.0469H17.2656H2.42189V21.6016V20.1563H17.2656H32.1094V21.6016ZM32.0938 29.8594L32.0703 34.2578L31.836 34.6797C31.586 35.125 31.2969 35.3906 30.836 35.5859C30.586 35.6875 29.0156 35.7031 17.211 35.7031C4.45314 35.7031 3.85158 35.6953 3.5547 35.5547C3.14845 35.375 2.75002 34.9766 2.57033 34.5703C2.43752 34.2813 2.42189 33.9531 2.42189 29.8594V25.4688H17.2656H32.1172L32.0938 29.8594Z" fill="#115740"/>
<path d="M5.39062 31.1641C5.04688 31.3438 4.76562 31.8203 4.76562 32.2188C4.76562 32.6484 5.03906 33.0938 5.42969 33.2812C5.73438 33.4297 5.91406 33.4375 8.67969 33.4375C11.375 33.4375 11.625 33.4297 11.875 33.2891C12.2812 33.0781 12.4453 32.8047 12.4844 32.2891C12.5078 31.9141 12.4844 31.7891 12.3281 31.5625C11.9609 31.0156 11.9531 31.0156 8.63281 31.0156C5.89062 31.0156 5.64062 31.0234 5.39062 31.1641Z" fill="#115740"/>
</g>
<defs>
<clipPath id="clip0_311_80">
<rect width="40" height="40" fill="white"/>
</clipPath>
</defs>
</svg>
