<svg width="40" height="40" viewBox="0 0 40 40" fill="none" xmlns="http://www.w3.org/2000/svg">
<path d="M11.8125 2.65625C11.3516 2.9375 11.25 3.21094 11.25 4.15625V5H9.03125C7.07031 5 6.75781 5.01563 6.33594 5.14844C5.1875 5.50782 4.21094 6.49219 3.875 7.64844C3.76562 8.03125 3.75 9.45313 3.75 21.2578C3.75 33.9766 3.75781 34.4531 3.89844 34.9141C4.25781 36.0625 5.24219 37.0391 6.39844 37.375C6.78125 37.4844 8.20312 37.5 20 37.5C31.7969 37.5 33.2188 37.4844 33.6016 37.375C34.7578 37.0391 35.7422 36.0625 36.1016 34.9141C36.2422 34.4531 36.25 33.9766 36.25 21.25C36.25 8.52344 36.2422 8.04688 36.1016 7.58594C35.7422 6.4375 34.7578 5.46094 33.6016 5.125C33.2578 5.02344 32.75 5 30.9609 5H28.75V4.15625C28.75 3.21094 28.6484 2.9375 28.1875 2.65625C27.8359 2.44532 27.1641 2.44532 26.8125 2.65625C26.3516 2.9375 26.25 3.21094 26.25 4.15625V5H23.75H21.25V4.15625C21.25 3.21094 21.1484 2.9375 20.6875 2.65625C20.3359 2.44532 19.6641 2.44532 19.3125 2.65625C18.8516 2.9375 18.75 3.21094 18.75 4.15625V5H16.25H13.75V4.15625C13.75 3.46094 13.7266 3.28125 13.5938 3.0625C13.3594 2.6875 13.0078 2.5 12.5 2.5C12.2109 2.5 11.9844 2.54688 11.8125 2.65625ZM11.25 8.33594C11.25 9.28907 11.3516 9.5625 11.8125 9.84375C12.1641 10.0547 12.8359 10.0547 13.1875 9.84375C13.6484 9.5625 13.75 9.28907 13.75 8.33594V7.5H16.25H18.75V8.33594C18.75 9.28907 18.8516 9.5625 19.3125 9.84375C19.6641 10.0547 20.3359 10.0547 20.6875 9.84375C21.1484 9.5625 21.25 9.28907 21.25 8.33594V7.5H23.75H26.25V8.33594C26.25 9.28907 26.3516 9.5625 26.8125 9.84375C27.1641 10.0547 27.8359 10.0547 28.1875 9.84375C28.6484 9.5625 28.75 9.28907 28.75 8.33594V7.49219L30.7656 7.51563C32.6094 7.53907 32.7969 7.55469 33.0391 7.69532C33.3828 7.89844 33.5859 8.17969 33.6719 8.5625C33.7109 8.72657 33.75 9.6875 33.75 10.6797V12.5H19.9922H6.24219L6.26562 10.4844C6.28906 8.64063 6.30469 8.45313 6.44531 8.21094C6.64062 7.88282 6.92969 7.65625 7.27344 7.57813C7.42188 7.54688 8.375 7.51563 9.39844 7.50782L11.25 7.5V8.33594ZM33.7344 24.5078C33.7109 33.8672 33.7109 34.0313 33.5547 34.2891C33.3516 34.6328 33.0703 34.8359 32.6875 34.9219C32.2812 35.0156 7.71875 35.0156 7.3125 34.9219C6.92969 34.8359 6.64844 34.6328 6.44531 34.2891C6.28906 34.0313 6.28906 33.8672 6.26562 24.5078L6.25 15H20H33.75L33.7344 24.5078Z" fill="#115740"/>
<path d="M16.5341 29.0183H15.1562V27.0879H16.5341V25.9619H15.1562V23.9242H16.5341V19.0625H21.0031C22.1101 19.0625 23.011 19.3723 23.7058 19.992C24.4123 20.6116 24.7656 21.4517 24.7656 22.5122C24.7656 23.2152 24.6008 23.8289 24.271 24.3532C23.9531 24.8775 23.5056 25.2767 22.9285 25.5508C22.3633 25.8249 21.7215 25.9619 21.0031 25.9619H18.9187V27.0879H23.3701V29.0183H18.9187V30.8594H16.5341V29.0183ZM20.8442 23.9242C21.3034 23.9242 21.6744 23.8051 21.957 23.5668C22.2396 23.3165 22.3809 22.971 22.3809 22.5301C22.3809 22.0892 22.2396 21.7436 21.957 21.4934C21.6744 21.2312 21.3034 21.1001 20.8442 21.1001H18.9187V23.9242H20.8442Z" fill="#115740"/>
</svg>
