<svg width="40" height="40" viewBox="0 0 40 40" fill="none" xmlns="http://www.w3.org/2000/svg">
<path d="M7.03125 3.07812C4.65625 4.77344 2.64844 6.25781 2.57031 6.375C2.36719 6.67969 2.36719 7.38281 2.57031 7.67969C2.6875 7.86719 3.46875 8.44531 6.35156 10.5078C6.49219 10.6094 6.48438 10.6328 6.17969 11.0859C5 12.8203 4.03906 15.4062 3.71094 17.7344C3.5625 18.8047 3.5625 21.1953 3.71094 22.25C4.59375 28.4688 8.89844 33.6484 14.8125 35.5938C15.8594 35.9375 16.8906 36.1719 18.0078 36.3281C18.3594 36.375 20.4531 36.4375 22.8359 36.4609L27.0312 36.5078V37.8828C27.0312 39.1016 27.0469 39.2812 27.1797 39.4844C27.4219 39.8516 27.7188 40 28.2188 40H28.6641L32.9688 36.9219C35.3438 35.2266 37.3516 33.7422 37.4297 33.625C37.6328 33.3203 37.6328 32.6172 37.4297 32.3203C37.3125 32.1328 36.5312 31.5547 33.6484 29.4922C33.5078 29.3906 33.5156 29.3672 33.8203 28.9141C35.0234 27.1484 35.9844 24.5312 36.2891 22.2109C36.4453 21.0391 36.4375 18.8125 36.2812 17.7422C35.7344 13.9688 34.0469 10.6797 31.3203 8.08594C28.7656 5.65625 25.6797 4.1875 21.9922 3.67188C21.625 3.61719 19.625 3.5625 17.1719 3.53906L12.9688 3.5V2.11719C12.9688 0.898438 12.9531 0.71875 12.8203 0.515625C12.5781 0.148438 12.2812 0 11.7812 0H11.3359L7.03125 3.07812ZM10.7969 5.38281C10.8672 5.48438 11.0312 5.63281 11.1484 5.71094C11.3516 5.85156 11.5938 5.85938 14.9219 5.85938C16.875 5.85938 18.8828 5.89844 19.3828 5.9375C20.9766 6.07031 22.0859 6.53906 23.0078 7.46094C23.6328 8.09375 23.9922 8.66406 24.2578 9.42969C24.6094 10.4766 24.625 10.4609 23.875 9.89062C23.0938 9.29688 22.0312 8.75781 21.0547 8.46094L20.3516 8.25L15.8984 8.21875C11.8047 8.19531 11.4219 8.20312 11.1953 8.32812C10.7578 8.55469 10.6719 8.77344 10.625 9.69531L10.5859 10.5234L8.20312 8.82031C6.89062 7.89062 5.82031 7.07812 5.82031 7.03125C5.82031 6.98438 6.89062 6.17188 8.20312 5.24219L10.5859 3.53906L10.625 4.36719C10.6562 4.96875 10.7031 5.24219 10.7969 5.38281ZM27.8125 8.38281C30.2031 9.98438 31.9922 12.2188 33.0391 14.9219C33.6953 16.6016 33.9844 18.1484 33.9844 20.0391C33.9844 22.7578 33.2656 25.2734 31.8594 27.4453L31.5156 27.9688L30.0859 26.9531C28.6562 25.9375 28.6562 25.9375 28.2109 25.9375C27.7188 25.9375 27.4219 26.0859 27.1797 26.4531C27.0469 26.6562 27.0312 26.8359 27.0312 28.0781V29.4688L23.6953 29.4297C19.9766 29.3906 19.8906 29.3828 18.7109 28.8359C17.4531 28.25 16.5547 27.3281 15.8906 25.9531C15.3828 24.9141 15.2188 24.7656 14.5078 24.7656C14.0938 24.7656 14.0312 24.7891 13.75 25.0547C13.4922 25.3047 13.4062 25.4688 13.2422 26.0547C12.8672 27.3594 12.8672 29.1953 13.2422 30.5078C13.3516 30.8906 13.6094 31.5547 13.8203 31.9766C14.0234 32.3906 14.1797 32.7344 14.1562 32.7344C14.1328 32.7344 13.8125 32.5703 13.4453 32.375C9.67188 30.3359 7.17188 26.9609 6.23438 22.6562C6.07812 21.9297 6.0625 21.6172 6.0625 19.9609C6.0625 18.3047 6.07812 17.9922 6.23438 17.2656C6.58594 15.6484 7.20312 14.0859 8.04688 12.6875C8.4375 12.0547 8.46094 12.0312 8.61719 12.1328C8.71094 12.1953 9.36719 12.6562 10.0625 13.1562C11.3359 14.0547 11.3438 14.0625 11.7812 14.0625C12.2812 14.0625 12.5781 13.9141 12.8203 13.5469C12.9531 13.3438 12.9688 13.1641 12.9688 11.9219V10.5312L16.3125 10.5703C20.0234 10.6094 20.1094 10.6172 21.2891 11.1641C22.5469 11.75 23.4453 12.6719 24.1094 14.0469C24.6172 15.0859 24.7812 15.2344 25.4844 15.2344C25.8906 15.2344 25.9688 15.2031 26.2344 14.9609C26.5625 14.6641 26.7812 14.0859 26.9609 13.0156C27.0938 12.2188 27.0078 10.2031 26.8047 9.42969C26.6328 8.78125 26.2109 7.66406 26.0859 7.53906C25.7188 7.16406 26.7266 7.65625 27.8125 8.38281ZM32.0547 31.3672C33.25 32.2109 34.2109 32.9453 34.2031 32.9844C34.1875 33.0312 33.1016 33.8281 31.7969 34.7656L29.4141 36.4609L29.375 35.6328C29.3281 34.7109 29.2422 34.4922 28.8047 34.2734C28.5859 34.1562 28.0625 34.1406 24.4531 34.1172C19.8828 34.0859 19.9375 34.0859 18.7109 33.5234C17.5312 32.9766 16.5547 32.0078 15.9766 30.8203C15.5859 30.0234 15.4531 29.5938 15.6328 29.7344C16.7422 30.625 17.7422 31.1641 18.9453 31.5391L19.6484 31.75L24.1016 31.7812C28.2188 31.8047 28.5703 31.7969 28.8125 31.6719C29.2656 31.4297 29.375 31.1484 29.375 30.2344V29.4375L29.6328 29.625C29.7656 29.7266 30.8594 30.5156 32.0547 31.3672Z" fill="#115740"/>
<path d="M16.745 23.6815H15.4929V21.9299H16.745V20.9082H15.4929V19.0593H16.745V14.6478H20.8062C21.8121 14.6478 22.6308 14.9289 23.2622 15.4912C23.9043 16.0534 24.2253 16.8157 24.2253 17.778C24.2253 18.4159 24.0755 18.9728 23.7759 19.4485C23.4869 19.9243 23.0803 20.2865 22.5559 20.5352C22.0422 20.7838 21.459 20.9082 20.8062 20.9082H18.912V21.9299H22.9572V23.6815H18.912V25.3521H16.745V23.6815ZM20.6617 19.0593C21.0791 19.0593 21.4162 18.9511 21.673 18.7349C21.9299 18.5078 22.0583 18.1943 22.0583 17.7942C22.0583 17.3942 21.9299 17.0806 21.673 16.8535C21.4162 16.6157 21.0791 16.4967 20.6617 16.4967H18.912V19.0593H20.6617Z" fill="#115740"/>
</svg>
