<svg width="213" height="62" viewBox="0 0 213 62" fill="none" xmlns="http://www.w3.org/2000/svg">
<path fill-rule="evenodd" clip-rule="evenodd" d="M74.2717 50.7275V51.5166H68.7812V50.7275H74.2717ZM74.2717 53.3203V54.1094H68.7812V53.3203H74.2717Z" fill="white"/>
<path fill-rule="evenodd" clip-rule="evenodd" d="M90.8183 50.3891V56.7018H90.0662V55.6121C89.7654 56.0254 89.3893 56.326 89.0132 56.5515C88.6372 56.7769 88.1859 56.8521 87.7346 56.8521C86.9073 56.8521 86.1928 56.5139 85.5911 55.8751C84.9894 55.2363 84.7262 54.4472 84.7262 53.5078C84.7262 52.606 85.027 51.8169 85.6287 51.1781C86.2304 50.5394 86.9449 50.2012 87.7722 50.2012C88.2611 50.2012 88.6748 50.3139 89.0884 50.5394C89.4645 50.7648 89.803 51.0654 90.1038 51.5163V50.3515L90.8183 50.3891ZM87.7722 51.0278C87.3586 51.0278 86.9449 51.1406 86.6065 51.366C86.2304 51.5915 85.9672 51.8921 85.7791 52.3054C85.5535 52.6812 85.4783 53.1321 85.4783 53.583C85.4783 54.0339 85.5911 54.4472 85.8167 54.8606C86.0424 55.2739 86.3056 55.5745 86.6441 55.8C87.0201 56.0254 87.3962 56.1381 87.7722 56.1381C88.1859 56.1381 88.5996 56.0254 88.938 55.8C89.3141 55.5745 89.6149 55.2739 89.7654 54.8981C89.991 54.5224 90.0662 54.0715 90.0662 53.6206C90.0662 52.9066 89.8406 52.2678 89.3893 51.7794C88.9756 51.2533 88.4491 51.0278 87.7722 51.0278Z" fill="white"/>
<path fill-rule="evenodd" clip-rule="evenodd" d="M99.3925 51.1026V56.7014H98.6404V50.3887H101.611V51.1026H99.3925Z" fill="white"/>
<path fill-rule="evenodd" clip-rule="evenodd" d="M108.794 50.3896H109.546V51.5544C109.847 51.1035 110.185 50.7653 110.561 50.5774C110.937 50.352 111.389 50.2393 111.84 50.2393C112.667 50.2393 113.382 50.5774 113.984 51.2162C114.585 51.855 114.886 52.6441 114.886 53.5459C114.886 54.4853 114.585 55.2744 114.021 55.9132C113.419 56.552 112.743 56.8902 111.878 56.8902C111.426 56.8902 110.975 56.7774 110.599 56.5896C110.223 56.3641 109.847 56.0635 109.546 55.6502V59.0696H108.794V50.3896ZM111.802 51.0284C111.126 51.0284 110.599 51.2538 110.148 51.7423C109.696 52.2308 109.471 52.8696 109.471 53.5835C109.471 54.072 109.546 54.4853 109.772 54.8611C109.997 55.2368 110.261 55.5374 110.637 55.7629C111.013 55.9883 111.389 56.1011 111.802 56.1011C112.216 56.1011 112.592 55.9883 112.931 55.7629C113.307 55.5374 113.57 55.2368 113.758 54.8235C113.984 54.4102 114.096 53.9968 114.096 53.5459C114.096 53.095 113.984 52.6817 113.796 52.2684C113.57 51.8926 113.307 51.5544 112.968 51.329C112.63 51.1035 112.216 51.0284 111.802 51.0284Z" fill="white"/>
<path fill-rule="evenodd" clip-rule="evenodd" d="M125.228 50.2393C126.13 50.2393 126.882 50.615 127.484 51.2914C128.011 51.9302 128.311 52.7193 128.311 53.5835C128.311 54.4477 128.011 55.2368 127.447 55.9132C126.882 56.5896 126.168 56.8902 125.265 56.8902C124.363 56.8902 123.611 56.552 123.047 55.9132C122.483 55.2368 122.182 54.4853 122.182 53.5835C122.182 52.6817 122.445 51.9677 123.009 51.2914C123.573 50.5774 124.325 50.2393 125.228 50.2393ZM125.228 51.0283C124.588 51.0283 124.062 51.2538 123.611 51.7799C123.159 52.3059 122.934 52.9071 122.934 53.5835C122.934 54.0344 123.009 54.4477 123.235 54.8611C123.46 55.2368 123.724 55.5374 124.062 55.7629C124.438 55.9883 124.776 56.1011 125.19 56.1011C125.604 56.1011 126.017 55.9883 126.318 55.7629C126.657 55.5374 126.958 55.2368 127.146 54.8611C127.371 54.4853 127.447 54.0344 127.447 53.5835C127.447 52.8696 127.221 52.2683 126.77 51.7799C126.356 51.2914 125.867 51.0283 125.228 51.0283Z" fill="white"/>
<path fill-rule="evenodd" clip-rule="evenodd" d="M144.144 50.7275V51.5166H138.653V50.7275H144.144ZM144.144 53.3203V54.1094H138.653V53.3203H144.144Z" fill="white"/>
<path d="M158.847 40.469C158.246 40.469 157.757 39.9805 157.757 39.3793C157.757 38.7781 158.246 38.2896 158.847 38.2896C159.035 38.2896 178.703 38.2896 187.541 38.2144C195.438 38.1768 196.19 34.0059 196.604 31.4508C196.416 28.1441 194.009 26.0023 189.346 24.9502C187.842 24.612 182.126 24.6496 176.109 24.6871C174.191 24.6871 172.198 24.7247 170.204 24.7247H170.167C157.87 24.1235 157.907 18.412 157.907 15.9696C157.907 15.7065 157.907 15.4435 157.907 15.2932V15.1805V15.0678C158.509 7.62775 169.904 7.32715 170.355 7.32715H197.168C197.77 7.32715 198.258 7.81563 198.258 8.41685C198.258 9.01806 197.77 9.50654 197.168 9.50654H170.355C170.28 9.50654 160.615 9.76957 160.088 15.1429C160.088 15.3684 160.088 15.6314 160.088 15.932C160.088 18.1865 160.051 21.9817 170.204 22.4702C172.198 22.4702 174.153 22.4702 176.071 22.4326C182.765 22.395 188.03 22.3575 189.797 22.7332C196.98 24.349 198.672 28.332 198.823 31.3756V31.4884V31.6011C198.409 34.1938 197.506 40.2811 187.578 40.3187C178.741 40.469 159.073 40.469 158.847 40.469Z" fill="white"/>
<path d="M132.034 18.149C131.771 18.149 131.546 18.0738 131.32 17.886L120.79 9.31868C120.301 8.94293 120.264 8.22899 120.64 7.77808C121.016 7.28959 121.73 7.25202 122.182 7.62777L132.711 16.195C133.2 16.5708 133.238 17.2847 132.862 17.7357C132.674 17.9987 132.335 18.149 132.034 18.149Z" fill="white"/>
<path d="M132.034 18.1495C131.696 18.1495 131.395 17.9992 131.169 17.7362C130.793 17.2477 130.869 16.5713 131.32 16.1956L141.85 7.62828C142.338 7.25253 143.015 7.32768 143.391 7.77859C143.767 8.26707 143.692 8.94344 143.241 9.31919L132.711 17.8865C132.523 18.0743 132.26 18.1495 132.034 18.1495Z" fill="white"/>
<path d="M132.034 31.5639L120.828 22.4329C120.339 22.0572 120.301 21.3432 120.677 20.8923C121.053 20.4039 121.768 20.3663 122.219 20.742L132.034 28.7457L141.85 20.742C142.338 20.3663 143.015 20.4414 143.391 20.8923C143.767 21.3808 143.692 22.0572 143.241 22.4329L132.034 31.5639Z" fill="white"/>
<path d="M132.034 40.958C131.433 40.958 130.944 40.4695 130.944 39.8683V8.45493C130.944 7.85372 131.433 7.36523 132.034 7.36523C132.636 7.36523 133.125 7.85372 133.125 8.45493V39.8307C133.125 40.4695 132.636 40.958 132.034 40.958Z" fill="white"/>
<path d="M34.2966 41.3336C33.5821 41.3336 32.8676 41.3336 32.1155 41.296C21.9995 40.7324 17.562 37.0499 15.6065 34.0814C14.6663 32.616 14.1398 30.8499 14.1398 29.0463V9.01841C14.1398 8.4172 14.6287 7.92871 15.2304 7.92871C15.8321 7.92871 16.321 8.4172 16.321 9.01841V29.0463C16.321 30.399 16.7346 31.7517 17.4492 32.879C19.1038 35.4342 23.0148 38.5905 32.1907 39.079C50.8808 39.6427 51.6329 33.0293 51.9714 30.2111C51.9714 30.0608 52.009 29.9105 52.009 29.7978V9.76992C52.009 9.16871 52.4979 8.68023 53.0996 8.68023C53.7013 8.68023 54.1902 9.16871 54.1902 9.76992V29.9105V29.9857C54.1902 30.0984 54.1525 30.2487 54.1525 30.4366C53.8517 33.4802 52.9492 41.3336 34.2966 41.3336Z" fill="white"/>
<path d="M36.929 41.3335C36.8914 41.3335 36.8914 41.3335 36.8538 41.3335C26.7378 40.7699 22.3003 37.0875 20.3448 34.119C19.3671 32.6911 18.8782 30.9626 18.8782 29.0838C18.8782 28.4826 19.3671 27.9941 19.9687 27.9941C20.5704 27.9941 21.0593 28.4826 21.0593 29.0838C21.0593 30.4741 21.4354 31.8269 22.1499 32.879C23.5037 34.9832 27.2643 38.5529 36.929 39.1166C37.5307 39.1541 38.0196 39.6802 37.982 40.2814C37.982 40.8826 37.4931 41.3335 36.929 41.3335Z" fill="white"/>
<path d="M104.356 41.2962C103.755 41.2962 103.266 40.8077 103.266 40.2065V10.3714L85.3279 23.8611C84.8766 24.1992 84.2373 24.1992 83.786 23.8611L66.4121 10.4465V40.2441C66.4121 40.8453 65.9232 41.3338 65.3215 41.3338C64.7198 41.3338 64.2309 40.8453 64.2309 40.2441V8.41742C64.2309 7.96651 64.4942 7.5156 64.8702 7.32773C65.2839 7.10227 65.7728 7.13985 66.1488 7.40288L66.224 7.44045L84.6133 21.6441L103.604 7.40288C103.98 7.13985 104.469 7.13985 104.883 7.32773C105.297 7.55318 105.522 7.96651 105.522 8.41742V40.1689C105.447 40.7702 104.958 41.2962 104.356 41.2962Z" fill="white"/>
<path d="M84.5381 29.4974C84.1997 29.4974 83.8612 29.3471 83.6356 29.0465C83.2595 28.558 83.3723 27.8816 83.8612 27.5058L103.604 13.1895C104.093 12.8137 104.77 12.9265 105.146 13.4149C105.522 13.9034 105.409 14.5798 104.921 14.9555L85.215 29.3095C84.9894 29.4598 84.7638 29.4974 84.5381 29.4974Z" fill="white"/>
<path d="M84.5381 29.497C84.3125 29.497 84.0869 29.4219 83.8988 29.2716L64.7198 15.2182C64.2309 14.8425 64.1181 14.1661 64.4942 13.6776C64.8702 13.1892 65.5471 13.0764 66.036 13.4522L85.215 27.5055C85.7039 27.8813 85.8167 28.5576 85.4407 29.0461C85.215 29.3467 84.8766 29.497 84.5381 29.497Z" fill="white"/>
<path d="M84.5757 34.8323C84.2373 34.8323 83.8988 34.682 83.6732 34.3814C83.2971 33.8929 83.4099 33.2166 83.8988 32.8408L103.642 18.5244C104.131 18.1487 104.808 18.2614 105.184 18.7499C105.56 19.2384 105.447 19.9148 104.958 20.2905L85.215 34.6069C85.027 34.7572 84.8014 34.8323 84.5757 34.8323Z" fill="white"/>
<path d="M84.5757 34.8325C84.3501 34.8325 84.1245 34.7573 83.9364 34.607L64.7574 20.5161C64.2685 20.1403 64.1557 19.464 64.5318 18.9755C64.9078 18.487 65.5847 18.3743 66.0736 18.75L85.2526 32.8409C85.7415 33.2167 85.8543 33.8931 85.4783 34.3816C85.2526 34.6822 84.9142 34.8325 84.5757 34.8325Z" fill="white"/>
<path d="M19.9687 30.4366C19.3671 30.4366 18.8782 29.9481 18.8782 29.3469V9.01841C18.8782 8.4172 19.3671 7.92871 19.9687 7.92871C20.5704 7.92871 21.0593 8.4172 21.0593 9.01841V29.3469C21.0593 29.9481 20.5704 30.4366 19.9687 30.4366Z" fill="white"/>
</svg>
