<svg width="171" height="50" viewBox="0 0 171 50" fill="none" xmlns="http://www.w3.org/2000/svg">
<g clip-path="url(#clip0_59_454)">
<path fill-rule="evenodd" clip-rule="evenodd" d="M155.784 50H15.2161C6.82309 50 0 43.1818 0 34.7273V15.2424C0 6.81818 6.82309 0 15.2161 0H155.784C164.177 0 171 6.81818 171 15.2727V34.7576C170.97 43.1818 164.177 50 155.784 50Z" fill="#115740"/>
<path fill-rule="evenodd" clip-rule="evenodd" d="M59.6266 40.9091V41.5455H55.2188V40.9091H59.6266ZM59.6266 43V43.6364H55.2188V43H59.6266Z" fill="white"/>
<path fill-rule="evenodd" clip-rule="evenodd" d="M72.9105 40.6364V45.7273H72.3067V44.8485C72.0651 45.1818 71.7632 45.4243 71.4613 45.6061C71.1594 45.7879 70.7971 45.8485 70.4348 45.8485C69.7707 45.8485 69.197 45.5758 68.714 45.0606C68.2309 44.5455 68.0196 43.9091 68.0196 43.1515C68.0196 42.4243 68.2611 41.7879 68.7442 41.2727C69.2272 40.7576 69.8008 40.4849 70.465 40.4849C70.8575 40.4849 71.1896 40.5758 71.5217 40.7576C71.8236 40.9394 72.0953 41.1818 72.3369 41.5455V40.6061L72.9105 40.6364ZM70.465 41.1515C70.1329 41.1515 69.8008 41.2424 69.5291 41.4243C69.2272 41.6061 69.0159 41.8485 68.8649 42.1818C68.6838 42.4849 68.6234 42.8485 68.6234 43.2121C68.6234 43.5758 68.714 43.9091 68.8951 44.2424C69.0763 44.5758 69.2876 44.8182 69.5593 45C69.8612 45.1818 70.1631 45.2727 70.465 45.2727C70.7971 45.2727 71.1292 45.1818 71.4009 45C71.7029 44.8182 71.9444 44.5758 72.0651 44.2727C72.2463 43.9697 72.3067 43.6061 72.3067 43.2424C72.3067 42.6667 72.1255 42.1515 71.7632 41.7576C71.4311 41.3333 71.0085 41.1515 70.465 41.1515Z" fill="white"/>
<path fill-rule="evenodd" clip-rule="evenodd" d="M79.794 41.2121V45.7273H79.1902V40.6364H81.5752V41.2121H79.794Z" fill="white"/>
<path fill-rule="evenodd" clip-rule="evenodd" d="M87.3416 40.6364H87.9454V41.5757C88.187 41.2121 88.4587 40.9394 88.7606 40.7879C89.0625 40.606 89.4248 40.5151 89.7871 40.5151C90.4513 40.5151 91.0249 40.7879 91.5079 41.303C91.991 41.8182 92.2325 42.4545 92.2325 43.1818C92.2325 43.9394 91.991 44.5757 91.5381 45.0909C91.0551 45.606 90.5116 45.8788 89.8173 45.8788C89.455 45.8788 89.0927 45.7879 88.7908 45.6364C88.4889 45.4545 88.187 45.2121 87.9454 44.8788V47.6363H87.3416V40.6364ZM89.7569 41.1515C89.2134 41.1515 88.7908 41.3333 88.4285 41.7273C88.0662 42.1212 87.8851 42.6364 87.8851 43.2121C87.8851 43.606 87.9454 43.9394 88.1266 44.2424C88.3077 44.5454 88.5191 44.7879 88.821 44.9697C89.1229 45.1515 89.4248 45.2424 89.7569 45.2424C90.089 45.2424 90.3909 45.1515 90.6626 44.9697C90.9645 44.7879 91.1758 44.5454 91.3268 44.2121C91.5079 43.8788 91.5985 43.5454 91.5985 43.1818C91.5985 42.8182 91.5079 42.4848 91.357 42.1515C91.1758 41.8485 90.9645 41.5757 90.6928 41.3939C90.4211 41.2121 90.089 41.1515 89.7569 41.1515Z" fill="white"/>
<path fill-rule="evenodd" clip-rule="evenodd" d="M100.535 40.5151C101.26 40.5151 101.863 40.8182 102.346 41.3636C102.769 41.8788 103.011 42.5151 103.011 43.2121C103.011 43.9091 102.769 44.5454 102.316 45.0909C101.863 45.6363 101.29 45.8788 100.565 45.8788C99.8406 45.8788 99.2368 45.606 98.7839 45.0909C98.331 44.5454 98.0895 43.9394 98.0895 43.2121C98.0895 42.4848 98.3008 41.9091 98.7537 41.3636C99.2066 40.7879 99.8104 40.5151 100.535 40.5151ZM100.535 41.1515C100.022 41.1515 99.5991 41.3333 99.2368 41.7576C98.8745 42.1818 98.6933 42.6667 98.6933 43.2121C98.6933 43.5757 98.7537 43.9091 98.9349 44.2424C99.116 44.5454 99.3273 44.7879 99.599 44.9697C99.901 45.1515 100.173 45.2424 100.505 45.2424C100.837 45.2424 101.169 45.1515 101.41 44.9697C101.682 44.7879 101.924 44.5454 102.075 44.2424C102.256 43.9394 102.316 43.5757 102.316 43.2121C102.316 42.6364 102.135 42.1515 101.773 41.7576C101.441 41.3636 101.048 41.1515 100.535 41.1515Z" fill="white"/>
<path fill-rule="evenodd" clip-rule="evenodd" d="M115.721 40.9091V41.5455H111.313V40.9091H115.721ZM115.721 43V43.6364H111.313V43H115.721Z" fill="white"/>
<path d="M127.525 32.6364C127.042 32.6364 126.65 32.2425 126.65 31.7576C126.65 31.2728 127.042 30.8788 127.525 30.8788C127.676 30.8788 143.466 30.8788 150.561 30.8182C156.901 30.7879 157.505 27.4243 157.837 25.3637C157.686 22.697 155.754 20.9697 152.01 20.1212C150.802 19.8485 146.213 19.8788 141.383 19.9091C139.843 19.9091 138.243 19.9394 136.643 19.9394H136.613C126.74 19.4546 126.771 14.8485 126.771 12.8788C126.771 12.6667 126.771 12.4546 126.771 12.3334V12.2425V12.1515C127.254 6.15154 136.401 5.90912 136.764 5.90912H158.29C158.773 5.90912 159.165 6.30306 159.165 6.78791C159.165 7.27275 158.773 7.66669 158.29 7.66669H136.764C136.703 7.66669 128.944 7.87882 128.522 12.2121C128.522 12.394 128.522 12.6061 128.522 12.8485C128.522 14.6667 128.492 17.7273 136.643 18.1212C138.243 18.1212 139.813 18.1212 141.353 18.0909C146.727 18.0606 150.953 18.0303 152.372 18.3334C158.139 19.6364 159.497 22.8485 159.618 25.3031V25.394V25.4849C159.286 27.5758 158.561 32.4849 150.591 32.5152C143.496 32.6364 127.707 32.6364 127.525 32.6364Z" fill="white"/>
<path d="M105.999 14.6364C105.788 14.6364 105.607 14.5758 105.426 14.4243L96.9725 7.51518C96.58 7.21215 96.5498 6.63639 96.8517 6.27276C97.1536 5.87882 97.7272 5.84851 98.0895 6.15154L106.543 13.0606C106.935 13.3637 106.966 13.9394 106.664 14.3031C106.513 14.5152 106.241 14.6364 105.999 14.6364Z" fill="white"/>
<path d="M105.999 14.6364C105.728 14.6364 105.486 14.5152 105.305 14.3031C105.003 13.9091 105.064 13.3637 105.426 13.0606L113.879 6.15154C114.272 5.84851 114.815 5.90912 115.117 6.27276C115.419 6.6667 115.359 7.21215 114.996 7.51518L106.543 14.4243C106.392 14.5758 106.181 14.6364 105.999 14.6364Z" fill="white"/>
<path d="M105.999 25.4546L97.0026 18.0909C96.6102 17.7879 96.58 17.2121 96.8819 16.8485C97.1838 16.4546 97.7574 16.4243 98.1197 16.7273L105.999 23.1818L113.879 16.7273C114.272 16.4243 114.815 16.4849 115.117 16.8485C115.419 17.2424 115.359 17.7879 114.996 18.0909L105.999 25.4546Z" fill="white"/>
<path d="M105.999 33.0303C105.516 33.0303 105.124 32.6364 105.124 32.1515V6.81818C105.124 6.33333 105.516 5.93939 105.999 5.93939C106.483 5.93939 106.875 6.33333 106.875 6.81818V32.1212C106.875 32.6364 106.483 33.0303 105.999 33.0303Z" fill="white"/>
<path d="M27.5339 33.3333C26.9603 33.3333 26.3866 33.3333 25.7828 33.303C17.6615 32.8485 14.099 29.8788 12.5291 27.4848C11.7744 26.303 11.3517 24.8788 11.3517 23.4242V7.27271C11.3517 6.78786 11.7442 6.39392 12.2272 6.39392C12.7103 6.39392 13.1027 6.78786 13.1027 7.27271V23.4242C13.1027 24.5151 13.4348 25.606 14.0085 26.5151C15.3369 28.5757 18.4767 31.1212 25.8432 31.5151C40.848 31.9697 41.4518 26.6363 41.7235 24.3636C41.7235 24.2424 41.7537 24.1212 41.7537 24.0303V7.87877C41.7537 7.39392 42.1462 6.99998 42.6292 6.99998C43.1123 6.99998 43.5048 7.39392 43.5048 7.87877V24.1212V24.1818C43.5048 24.2727 43.4746 24.3939 43.4746 24.5454C43.233 27 42.5085 33.3333 27.5339 33.3333Z" fill="white"/>
<path d="M29.6473 33.3333C29.6171 33.3333 29.6171 33.3333 29.5869 33.3333C21.4656 32.8788 17.9031 29.9091 16.3332 27.5151C15.5482 26.3636 15.1557 24.9697 15.1557 23.4545C15.1557 22.9697 15.5482 22.5757 16.0313 22.5757C16.5143 22.5757 16.9068 22.9697 16.9068 23.4545C16.9068 24.5757 17.2087 25.6667 17.7823 26.5151C18.8692 28.2121 21.8883 31.0909 29.6473 31.5454C30.1303 31.5757 30.5228 32 30.4926 32.4848C30.4926 32.9697 30.1001 33.3333 29.6473 33.3333Z" fill="white"/>
<path d="M83.7791 33.3031C83.2961 33.3031 82.9036 32.9091 82.9036 32.4243V8.36366L68.5026 19.2425C68.1404 19.5152 67.6271 19.5152 67.2648 19.2425L53.3167 8.42427V32.4546C53.3167 32.9394 52.9243 33.3334 52.4412 33.3334C51.9582 33.3334 51.5657 32.9394 51.5657 32.4546V6.78791C51.5657 6.42427 51.777 6.06063 52.0789 5.90912C52.411 5.7273 52.8035 5.7576 53.1054 5.96973L53.1658 6.00003L67.929 17.4546L83.1753 5.96973C83.4772 5.7576 83.8697 5.7576 84.2018 5.90912C84.5339 6.09094 84.715 6.42427 84.715 6.78791V32.394C84.6547 32.8788 84.2622 33.3031 83.7791 33.3031Z" fill="white"/>
<path d="M67.8686 23.7879C67.5969 23.7879 67.3252 23.6667 67.1441 23.4242C66.8422 23.0303 66.9327 22.4849 67.3252 22.1818L83.1753 10.6364C83.5678 10.3333 84.1113 10.4242 84.4132 10.8182C84.7151 11.2121 84.6245 11.7576 84.232 12.0606L68.4121 23.6364C68.2309 23.7576 68.0498 23.7879 67.8686 23.7879Z" fill="white"/>
<path d="M67.8686 23.7879C67.6875 23.7879 67.5063 23.7273 67.3554 23.606L51.9581 12.2727C51.5657 11.9697 51.4751 11.4242 51.777 11.0303C52.0789 10.6363 52.6223 10.5454 53.0148 10.8485L68.4121 22.1818C68.8045 22.4848 68.8951 23.0303 68.5932 23.4242C68.4121 23.6666 68.1403 23.7879 67.8686 23.7879Z" fill="white"/>
<path d="M67.8988 28.0909C67.6271 28.0909 67.3554 27.9697 67.1742 27.7273C66.8723 27.3334 66.9629 26.7879 67.3554 26.4849L83.2055 14.9394C83.598 14.6364 84.1414 14.7273 84.4433 15.1212C84.7452 15.5152 84.6546 16.0606 84.2622 16.3637L68.4121 27.9091C68.2611 28.0303 68.08 28.0909 67.8988 28.0909Z" fill="white"/>
<path d="M67.8988 28.0909C67.7177 28.0909 67.5366 28.0303 67.3856 27.9091L51.9884 16.5455C51.5959 16.2424 51.5053 15.697 51.8072 15.3031C52.1091 14.9091 52.6525 14.8182 53.045 15.1212L68.4423 26.4849C68.8347 26.7879 68.9253 27.3334 68.6234 27.7273C68.4423 27.9697 68.1706 28.0909 67.8988 28.0909Z" fill="white"/>
<path d="M16.0313 24.5454C15.5482 24.5454 15.1557 24.1515 15.1557 23.6666V7.27271C15.1557 6.78786 15.5482 6.39392 16.0313 6.39392C16.5143 6.39392 16.9068 6.78786 16.9068 7.27271V23.6666C16.9068 24.1515 16.5143 24.5454 16.0313 24.5454Z" fill="white"/>
</g>
<defs>
<clipPath id="clip0_59_454">
<rect width="171" height="50" fill="white"/>
</clipPath>
</defs>
</svg>
